<svg xmlns="http://www.w3.org/2000/svg" xmlns:xlink="http://www.w3.org/1999/xlink" id="Layer_1" width="48" height="48" x="0" style="enable-background:new 0 0 48 48" y="0" version="1.1" viewBox="0 0 48 48" xml:space="preserve"><style type="text/css">.st0{opacity:.19}.st1{fill:#13b1cd}.st2{fill:#5bb8c9}.st3{fill:#235c66}</style><ellipse cx="23.5" cy="44.7" class="st0" rx="10.4" ry="3.3"/><path d="M23.5,0c-9.4,0-17,7.5-17,16.8s17,28,17,28s17-18.7,17-28S32.9,0,23.5,0z" class="st1"/><circle cx="23.5" cy="15.5" r="4.2" class="st2"/><path d="M23.5,12.2c2.2,0,3.9,1.6,4.2,3.8c0-0.2,0.1-0.3,0.1-0.5c0-2.3-1.9-4.2-4.2-4.2s-4.2,1.9-4.2,4.2	c0,0.2,0,0.3,0.1,0.5C19.6,13.9,21.3,12.2,23.5,12.2z" class="st3"/></svg>